<svg xmlns="http://www.w3.org/2000/svg" version="1.1" viewBox="0.00 0.00 2000.00 358.00">

<!-- V -->
<path fill="#b46d6b" d="M 0.00 0.00 L 200.00 0.00 L 200.00 358.00 L 0.00 358.00 L 0.00 0.00 Z M 50.00 49.52 L 100.00 307.75 L 130.00 307.75 L 150.00 49.52 L 120.00 49.52 L 115.00 200.00 L 110.00 49.52 L 80.00 49.52 L 75.00 200.00 L 70.00 49.52 L 50.00 49.52 Z"/>

<!-- I -->
<path fill="#be8178" d="M 200.00 0.00 L 400.00 0.00 L 400.00 358.00 L 200.00 358.00 L 200.00 0.00 Z M 250.00 49.52 L 250.00 89.52 L 275.00 89.52 L 275.00 267.75 L 250.00 267.75 L 250.00 307.75 L 350.00 307.75 L 350.00 267.75 L 325.00 267.75 L 325.00 89.52 L 350.00 89.52 L 350.00 49.52 L 250.00 49.52 Z"/>

<!-- B -->
<path fill="#ca9683" d="M 400.00 0.00 L 600.00 0.00 L 600.00 358.00 L 400.00 358.00 L 400.00 0.00 Z M 450.00 49.52 L 450.00 307.75 L 520.00 307.75 Q 550.00 307.75 550.00 267.75 Q 550.00 199.00 520.00 199.00 Q 550.00 199.00 550.00 139.00 Q 550.00 49.52 520.00 49.52 L 450.00 49.52 Z M 490.00 89.52 L 510.00 89.52 Q 510.00 89.52 510.00 119.00 Q 510.00 159.00 510.00 159.00 L 490.00 159.00 L 490.00 89.52 Z M 490.00 199.00 L 510.00 199.00 Q 510.00 199.00 510.00 227.75 Q 510.00 267.75 510.00 267.75 L 490.00 267.75 L 490.00 199.00 Z"/>

<!-- E -->
<path fill="#d4aa90" d="M 600.00 0.00 L 800.00 0.00 L 800.00 358.00 L 600.00 358.00 L 600.00 0.00 Z M 650.00 49.52 L 650.00 307.75 L 750.00 307.75 L 750.00 267.75 L 690.00 267.75 L 690.00 199.00 L 730.00 199.00 L 730.00 159.00 L 690.00 159.00 L 690.00 89.52 L 750.00 89.52 L 750.00 49.52 L 650.00 49.52 Z"/>

<!-- C -->
<path fill="#debe9c" d="M 800.00 0.00 L 1000.00 0.00 L 1000.00 358.00 L 800.00 358.00 L 800.00 0.00 Z M 900.00 49.52 Q 850.00 49.52 850.00 178.64 Q 850.00 307.75 900.00 307.75 Q 950.00 307.75 950.00 267.75 L 910.00 267.75 Q 890.00 267.75 890.00 178.64 Q 890.00 89.52 910.00 89.52 L 950.00 89.52 Q 950.00 49.52 900.00 49.52 Z"/>

<!-- O -->
<path fill="#ead2a9" d="M 1000.00 0.00 L 1200.00 0.00 L 1200.00 358.00 L 1000.00 358.00 L 1000.00 0.00 Z M 1100.00 49.52 Q 1050.00 49.52 1050.00 178.64 Q 1050.00 307.75 1100.00 307.75 Q 1150.00 307.75 1150.00 178.64 Q 1150.00 49.52 1100.00 49.52 Z M 1100.00 89.52 Q 1110.00 89.52 1110.00 178.64 Q 1110.00 267.75 1100.00 267.75 Q 1090.00 267.75 1090.00 178.64 Q 1090.00 89.52 1100.00 89.52 Z"/>

<!-- D -->
<path fill="#f5e7b4" d="M 1200.00 0.00 L 1400.00 0.00 L 1400.00 358.00 L 1200.00 358.00 L 1200.00 0.00 Z M 1250.00 49.52 L 1250.00 307.75 L 1320.00 307.75 Q 1350.00 307.75 1350.00 178.64 Q 1350.00 49.52 1320.00 49.52 L 1250.00 49.52 Z M 1290.00 89.52 L 1310.00 89.52 Q 1310.00 89.52 1310.00 178.64 Q 1310.00 267.75 1310.00 267.75 L 1290.00 267.75 L 1290.00 89.52 Z"/>

<!-- I -->
<path fill="#f5e7b4" d="M 1400.00 0.00 L 1600.00 0.00 L 1600.00 358.00 L 1400.00 358.00 L 1400.00 0.00 Z M 1450.00 49.52 L 1450.00 89.52 L 1475.00 89.52 L 1475.00 267.75 L 1450.00 267.75 L 1450.00 307.75 L 1550.00 307.75 L 1550.00 267.75 L 1525.00 267.75 L 1525.00 89.52 L 1550.00 89.52 L 1550.00 49.52 L 1450.00 49.52 Z"/>

<!-- N -->
<path fill="#f5e7b4" d="M 1600.00 0.00 L 1800.00 0.00 L 1800.00 358.00 L 1600.00 358.00 L 1600.00 0.00 Z M 1650.00 49.52 L 1650.00 307.75 L 1690.00 307.75 L 1690.00 150.00 L 1710.00 307.75 L 1750.00 307.75 L 1750.00 49.52 L 1710.00 49.52 L 1710.00 200.00 L 1690.00 49.52 L 1650.00 49.52 Z"/>

<!-- G -->
<path fill="#f5e7b4" d="M 1800.00 0.00 L 2000.00 0.00 L 2000.00 358.00 L 1800.00 358.00 L 1800.00 0.00 Z M 1900.00 49.52 Q 1850.00 49.52 1850.00 178.64 Q 1850.00 307.75 1900.00 307.75 Q 1950.00 307.75 1950.00 267.75 L 1950.00 199.00 L 1910.00 199.00 L 1910.00 239.00 L 1920.00 239.00 L 1920.00 267.75 Q 1890.00 267.75 1890.00 178.64 Q 1890.00 89.52 1920.00 89.52 L 1950.00 89.52 Q 1950.00 49.52 1900.00 49.52 Z"/>

</svg>